<?xml version="1.0" encoding="UTF-8" standalone="no"?>
<svg
   id="Layer_1"
   data-name="Layer 1"
   viewBox="0 0 756.26 596.9"
   version="1.1"
   sodipodi:docname="docker.svg"
   inkscape:version="1.4.2 (f4327f4, 2025-05-13)"
   xmlns:inkscape="http://www.inkscape.org/namespaces/inkscape"
   xmlns:sodipodi="http://sodipodi.sourceforge.net/DTD/sodipodi-0.dtd"
   xmlns="http://www.w3.org/2000/svg"
   xmlns:svg="http://www.w3.org/2000/svg">
  <sodipodi:namedview
     id="namedview1"
     pagecolor="#ffffff"
     bordercolor="#000000"
     borderopacity="0.25"
     inkscape:showpageshadow="2"
     inkscape:pageopacity="0.0"
     inkscape:pagecheckerboard="0"
     inkscape:deskcolor="#d1d1d1"
     inkscape:zoom="1.9551013"
     inkscape:cx="378.24128"
     inkscape:cy="298.45001"
     inkscape:window-width="3440"
     inkscape:window-height="1369"
     inkscape:window-x="-8"
     inkscape:window-y="-8"
     inkscape:window-maximized="1"
     inkscape:current-layer="Layer_1" />
  <defs
     id="defs1">
    <style
       id="style1">
      .cls-1 {
        fill: #1d63ed;
        stroke-width: 0px;
      }
    </style>
  </defs>
  <path
     d="m 400.77,0 h -81.7 v 81.7 h 81.7 z"
     id="path10" />
  <path
     d="m 400.77,103.2 h -81.7 v 81.7 h 81.7 z"
     id="path9" />
  <path
     d="m 295.22,103.2 h -81.7 v 81.7 h 81.7 z"
     id="path8" />
  <path
     d="m 189.67,103.2 h -81.7 v 81.7 h 81.7 z"
     id="path7" />
  <path
     d="M 84.12,206.39 H 2.42 v 81.7 h 81.7 z"
     id="path6" />
  <path
     d="m 506.32,206.39 h -81.7 v 81.7 h 81.7 z"
     id="path5" />
  <path
     d="m 400.77,206.39 h -81.7 v 81.7 h 81.7 z"
     id="path4" />
  <path
     d="m 295.22,206.39 h -81.7 v 81.7 h 81.7 z"
     id="path3" />
  <path
     d="m 189.67,206.39 h -81.7 v 81.7 h 81.7 z"
     id="path2" />
  <path
     d="M 743.96,245.25 C 725.42,232.77 676.7,227.44 641.28,236.98 639.37,201.7 621.18,171.97 587.9,146.03 l -12.32,-8.27 -8.21,12.4 c -16.14,24.5 -22.94,57.14 -20.53,86.81 1.9,18.28 8.26,38.83 20.53,53.74 -46.1,26.74 -88.59,20.67 -276.77,20.67 H 0.06 c -0.85,42.49 5.98,124.23 57.96,190.77 5.74,7.35 12.04,14.46 18.87,21.31 42.26,42.32 106.11,73.35 201.59,73.44 145.66,0.13 270.46,-78.6 346.37,-268.97 24.98,0.41 90.92,4.48 123.19,-57.88 0.79,-1.05 8.21,-16.54 8.21,-16.54 l -12.3,-8.27 z"
     id="path1" />
</svg>
