<?xml version="1.0" encoding="UTF-8" standalone="no"?>
<svg
   version="1.1"
   viewBox="0 0 40 40"
   id="svg4"
   sodipodi:docname="python.svg"
   inkscape:version="1.4.2 (ebf0e940, 2025-05-08)"
   xmlns:inkscape="http://www.inkscape.org/namespaces/inkscape"
   xmlns:sodipodi="http://sodipodi.sourceforge.net/DTD/sodipodi-0.dtd"
   xmlns="http://www.w3.org/2000/svg"
   xmlns:svg="http://www.w3.org/2000/svg">
  <defs
     id="defs4" />
  <sodipodi:namedview
     id="namedview4"
     pagecolor="#ffffff"
     bordercolor="#000000"
     borderopacity="0.25"
     inkscape:showpageshadow="2"
     inkscape:pageopacity="0.0"
     inkscape:pagecheckerboard="0"
     inkscape:deskcolor="#d1d1d1"
     inkscape:zoom="16"
     inkscape:cx="25"
     inkscape:cy="16.53125"
     inkscape:window-width="1936"
     inkscape:window-height="1032"
     inkscape:window-x="1838"
     inkscape:window-y="111"
     inkscape:window-maximized="0"
     inkscape:current-layer="svg4" />
  <path
     id="path21"
     d="M 31 10 C 31 12.520833 30.846813 14.430383 30.460938 15.908203 C 30.075062 17.386023 29.432514 18.450019 28.484375 19.152344 C 26.588097 20.55699 23.75 20.5 19.5 20.5 C 15.75 20.5 13.359347 20.55315 12 21.640625 C 11.320326 22.184364 10.826839 23.001229 10.492188 24.339844 C 10.169127 25.632081 10.01056 27.39331 10 29.744141 C 9.999621 29.828511 10 29.914106 10 30 L 10 35 C 10 37.77 14.46 40 20 40 C 25.54 40 30 37.77 30 35 L 30 30.994141 L 20.023438 30.994141 L 20.023438 30 L 35 30 C 37.77 30 40 25.54 40 20 C 40 14.46 37.77 10 35 10 L 31 10 z M 25.5 33.150391 C 26.521421 33.150607 27.349393 33.978579 27.349609 35 C 27.349393 36.021421 26.521421 36.849393 25.5 36.849609 C 24.478579 36.849393 23.650607 36.021421 23.650391 35 C 23.650607 33.978579 24.478579 33.150607 25.5 33.150391 z " />
  <path
     id="rect17"
     d="M 20 0 C 14.46 0 10 2.23 10 5 L 10 8.9746094 L 20 8.9765625 L 20 10 L 5 10 C 2.23 10 0 14.46 0 20 C 0 25.54 2.23 30 5 30 L 9 30 C 9 27.479167 9.1549662 25.571541 9.5234375 24.097656 C 9.8919088 22.623771 10.492174 21.565636 11.375 20.859375 C 13.140653 19.44685 15.75 19.5 19.5 19.5 C 23.75 19.5 26.411903 19.44301 27.890625 18.347656 C 28.629986 17.799981 29.143688 16.988977 29.492188 15.654297 C 29.835719 14.338641 29.995517 12.531376 30 10.105469 L 30 10 L 30 5 C 30 2.23 25.54 0 20 0 z M 14.5 3.1503906 C 15.521422 3.1506065 16.349393 3.9785784 16.349609 5 C 16.349393 6.0214216 15.521422 6.8493935 14.5 6.8496094 C 13.478578 6.8493935 12.650607 6.0214216 12.650391 5 C 12.650607 3.9785784 13.478578 3.1506065 14.5 3.1503906 z " />
  <path
     id="path13"
     d="M 30 19.648438 L 30 17.677734 "
     style="fill:#000000" />
  <path
     id="path11"
     d="M 10 17.677734 L 10 19.648438 "
     style="fill:#000000" />
  <path
     id="rect2"
     d="M 8.9999995 29.999999 L 5 30 C 2.23 30 0 25.54 0 20 C 0 14.46 2.23 10 5 10 L 5 10 L 29.999999 10 "
     style="fill:none" />
  <path
     id="path20"
     d="M 10.000001 30 L 8.9999995 29.999999 "
     style="fill:none" />
  <path
     id="path19"
     d="M 30.999999 9.9999997 L 35 10 C 37.77 10 40 14.46 40 20 C 40 25.54 37.77 30 35 30 L 10.000001 30 "
     style="fill:none" />
  <path
     id="path18"
     d="M 29.999999 10 L 30.999999 9.9999997 "
     style="fill:none" />
  <path
     style="fill:none"
     d="m -7.411023,18.969499 c 54.324838,0.61192 55.684659,0.543929 55.684659,0.543929 l -1.495803,-0.135983"
     id="path6" />
</svg>
